<svg xmlns="http://www.w3.org/2000/svg" viewBox="0 0 820 520" font-family="'Segoe UI', system-ui, -apple-system, sans-serif">
  <defs>
    <linearGradient id="bgGrad" x1="0%" y1="0%" x2="100%" y2="100%">
      <stop offset="0%" style="stop-color:#0f172a"/>
      <stop offset="100%" style="stop-color:#1e293b"/>
    </linearGradient>
    <filter id="shadow" x="-4%" y="-4%" width="108%" height="108%">
      <feDropShadow dx="0" dy="2" stdDeviation="3" flood-opacity="0.25"/>
    </filter>
    <marker id="arr" markerWidth="10" markerHeight="7" refX="10" refY="3.5" orient="auto">
      <path d="M0,0 L10,3.5 L0,7" fill="#94a3b8"/>
    </marker>
    <marker id="arrGreen" markerWidth="10" markerHeight="7" refX="10" refY="3.5" orient="auto">
      <path d="M0,0 L10,3.5 L0,7" fill="#4ade80"/>
    </marker>
    <marker id="arrBlue" markerWidth="10" markerHeight="7" refX="10" refY="3.5" orient="auto">
      <path d="M0,0 L10,3.5 L0,7" fill="#60a5fa"/>
    </marker>
    <marker id="arrOrange" markerWidth="10" markerHeight="7" refX="10" refY="3.5" orient="auto">
      <path d="M0,0 L10,3.5 L0,7" fill="#fb923c"/>
    </marker>
  </defs>

  <rect width="820" height="520" rx="16" fill="url(#bgGrad)"/>

  <!-- Title -->
  <text x="410" y="30" text-anchor="middle" fill="#94a3b8" font-size="13" font-weight="600" letter-spacing="1">HOW IT WORKS IN YOUR AGENT</text>

  <!-- Step 1: User -->
  <rect x="30" y="55" width="160" height="60" rx="10" fill="#1e293b" stroke="#475569" stroke-width="1.5" filter="url(#shadow)"/>
  <text x="110" y="78" text-anchor="middle" fill="#94a3b8" font-size="10" font-weight="600">STEP 1</text>
  <text x="110" y="100" text-anchor="middle" fill="#e2e8f0" font-size="14" font-weight="600">User Input</text>

  <!-- Arrow 1->2 -->
  <path d="M190,85 L230,85" stroke="#94a3b8" stroke-width="1.5" fill="none" marker-end="url(#arr)"/>
  <text x="210" y="78" text-anchor="middle" fill="#64748b" font-size="9">"Order steak"</text>

  <!-- Step 2: Agent checks memory FIRST -->
  <rect x="240" y="48" width="200" height="76" rx="10" fill="#1a3a2a" stroke="#4ade80" stroke-width="2" filter="url(#shadow)"/>
  <text x="340" y="72" text-anchor="middle" fill="#86efac" font-size="10" font-weight="700">STEP 2 - BEFORE LLM CALL</text>
  <text x="340" y="92" text-anchor="middle" fill="#e2e8f0" font-size="13" font-weight="600">memory.checkConflicts()</text>
  <text x="340" y="112" text-anchor="middle" fill="#fbbf24" font-size="11">Conflict found!</text>

  <!-- Arrow 2->3 -->
  <path d="M440,85 L490,85" stroke="#4ade80" stroke-width="1.5" fill="none" marker-end="url(#arrGreen)"/>

  <!-- Step 3: Agent decides -->
  <rect x="500" y="55" width="160" height="60" rx="10" fill="#1e293b" stroke="#fbbf24" stroke-width="1.5" filter="url(#shadow)"/>
  <text x="580" y="78" text-anchor="middle" fill="#fbbf24" font-size="10" font-weight="600">STEP 3</text>
  <text x="580" y="100" text-anchor="middle" fill="#e2e8f0" font-size="13" font-weight="600">Agent asks user</text>

  <!-- Divider -->
  <line x1="40" y1="148" x2="780" y2="148" stroke="#334155" stroke-width="0.5" stroke-dasharray="4,4"/>
  <text x="410" y="166" text-anchor="middle" fill="#64748b" font-size="10" letter-spacing="2">NORMAL AGENT FLOW (no conflict)</text>

  <!-- Step A: User query -->
  <rect x="30" y="185" width="140" height="56" rx="10" fill="#1e293b" stroke="#475569" stroke-width="1.5" filter="url(#shadow)"/>
  <text x="100" y="207" text-anchor="middle" fill="#94a3b8" font-size="10" font-weight="600">USER</text>
  <text x="100" y="228" text-anchor="middle" fill="#e2e8f0" font-size="12">"Suggest a recipe"</text>

  <!-- Arrow A->B -->
  <path d="M170,213 L208,213" stroke="#94a3b8" stroke-width="1.5" fill="none" marker-end="url(#arr)"/>

  <!-- Step B: Retrieve context -->
  <rect x="218" y="182" width="170" height="62" rx="10" fill="#1a3a2a" stroke="#4ade80" stroke-width="2" filter="url(#shadow)"/>
  <text x="303" y="203" text-anchor="middle" fill="#86efac" font-size="10" font-weight="700">RETRIEVE CONTEXT</text>
  <text x="303" y="222" text-anchor="middle" fill="#e2e8f0" font-size="11">memory.retrieve()</text>
  <text x="303" y="237" text-anchor="middle" fill="#94a3b8" font-size="10">returns: "is vegetarian"</text>

  <!-- Arrow B->C -->
  <path d="M388,213 L428,213" stroke="#4ade80" stroke-width="1.5" fill="none" marker-end="url(#arrGreen)"/>

  <!-- Step C: LLM call with context -->
  <rect x="438" y="182" width="170" height="62" rx="10" fill="#1e3a5f" stroke="#3b82f6" stroke-width="1.5" filter="url(#shadow)"/>
  <text x="523" y="203" text-anchor="middle" fill="#93c5fd" font-size="10" font-weight="700">LLM CALL</text>
  <text x="523" y="222" text-anchor="middle" fill="#e2e8f0" font-size="11">prompt + memory context</text>
  <text x="523" y="237" text-anchor="middle" fill="#94a3b8" font-size="10">"suggest veggie recipe"</text>

  <!-- Arrow C->D -->
  <path d="M608,213 L648,213" stroke="#60a5fa" stroke-width="1.5" fill="none" marker-end="url(#arrBlue)"/>

  <!-- Step D: Response -->
  <rect x="658" y="185" width="130" height="56" rx="10" fill="#1e293b" stroke="#475569" stroke-width="1.5" filter="url(#shadow)"/>
  <text x="723" y="207" text-anchor="middle" fill="#94a3b8" font-size="10" font-weight="600">RESPONSE</text>
  <text x="723" y="228" text-anchor="middle" fill="#e2e8f0" font-size="12">Veggie pasta!</text>

  <!-- Divider 2 -->
  <line x1="40" y1="268" x2="780" y2="268" stroke="#334155" stroke-width="0.5" stroke-dasharray="4,4"/>
  <text x="410" y="286" text-anchor="middle" fill="#64748b" font-size="10" letter-spacing="2">WHAT AGENTIC-MEMORY MANAGES</text>

  <!-- Memory store visualization -->
  <rect x="40" y="300" width="730" height="190" rx="12" fill="#111827" stroke="#1f2937" stroke-width="1"/>

  <!-- Column 1: Store -->
  <rect x="60" y="316" width="155" height="155" rx="8" fill="#1a3a2a" stroke="#22543d" stroke-width="1"/>
  <text x="137" y="338" text-anchor="middle" fill="#4ade80" font-size="11" font-weight="700">STORE</text>
  <line x1="75" y1="346" x2="200" y2="346" stroke="#22543d" stroke-width="0.5"/>
  <rect x="72" y="356" width="130" height="24" rx="4" fill="#0f172a" stroke="#334155" stroke-width="0.5"/>
  <text x="137" y="373" text-anchor="middle" fill="#e2e8f0" font-size="10">memory.store()</text>
  <rect x="72" y="388" width="130" height="24" rx="4" fill="#0f172a" stroke="#334155" stroke-width="0.5"/>
  <text x="137" y="405" text-anchor="middle" fill="#e2e8f0" font-size="10">memory.update()</text>
  <rect x="72" y="420" width="130" height="24" rx="4" fill="#0f172a" stroke="#334155" stroke-width="0.5"/>
  <text x="137" y="437" text-anchor="middle" fill="#e2e8f0" font-size="10">memory.delete()</text>

  <!-- Column 2: Retrieve -->
  <rect x="235" y="316" width="155" height="155" rx="8" fill="#1e293b" stroke="#1e3a5f" stroke-width="1"/>
  <text x="312" y="338" text-anchor="middle" fill="#60a5fa" font-size="11" font-weight="700">RETRIEVE</text>
  <line x1="250" y1="346" x2="375" y2="346" stroke="#1e3a5f" stroke-width="0.5"/>
  <rect x="247" y="356" width="130" height="24" rx="4" fill="#0f172a" stroke="#334155" stroke-width="0.5"/>
  <text x="312" y="373" text-anchor="middle" fill="#e2e8f0" font-size="10">4-signal ranking</text>
  <rect x="247" y="388" width="130" height="24" rx="4" fill="#0f172a" stroke="#334155" stroke-width="0.5"/>
  <text x="312" y="405" text-anchor="middle" fill="#e2e8f0" font-size="10">scope filtering</text>
  <rect x="247" y="420" width="130" height="24" rx="4" fill="#0f172a" stroke="#334155" stroke-width="0.5"/>
  <text x="312" y="437" text-anchor="middle" fill="#e2e8f0" font-size="10">type filtering</text>

  <!-- Column 3: Protect -->
  <rect x="410" y="316" width="155" height="155" rx="8" fill="#1e293b" stroke="#854d0e" stroke-width="1"/>
  <text x="487" y="338" text-anchor="middle" fill="#fbbf24" font-size="11" font-weight="700">PROTECT</text>
  <line x1="425" y1="346" x2="550" y2="346" stroke="#854d0e" stroke-width="0.5"/>
  <rect x="422" y="356" width="130" height="24" rx="4" fill="#0f172a" stroke="#334155" stroke-width="0.5"/>
  <text x="487" y="373" text-anchor="middle" fill="#e2e8f0" font-size="10">conflict detection</text>
  <rect x="422" y="388" width="130" height="24" rx="4" fill="#0f172a" stroke="#334155" stroke-width="0.5"/>
  <text x="487" y="405" text-anchor="middle" fill="#e2e8f0" font-size="10">typed decay</text>
  <rect x="422" y="420" width="130" height="24" rx="4" fill="#0f172a" stroke="#334155" stroke-width="0.5"/>
  <text x="487" y="437" text-anchor="middle" fill="#e2e8f0" font-size="10">auto cleanup</text>

  <!-- Column 4: Survive -->
  <rect x="585" y="316" width="165" height="155" rx="8" fill="#1e293b" stroke="#7f1d1d" stroke-width="1"/>
  <text x="667" y="338" text-anchor="middle" fill="#f87171" font-size="11" font-weight="700">SURVIVE</text>
  <line x1="600" y1="346" x2="735" y2="346" stroke="#7f1d1d" stroke-width="0.5"/>
  <rect x="597" y="356" width="140" height="24" rx="4" fill="#0f172a" stroke="#334155" stroke-width="0.5"/>
  <text x="667" y="373" text-anchor="middle" fill="#e2e8f0" font-size="10">checkpoint()</text>
  <rect x="597" y="388" width="140" height="24" rx="4" fill="#0f172a" stroke="#334155" stroke-width="0.5"/>
  <text x="667" y="405" text-anchor="middle" fill="#e2e8f0" font-size="10">rehydrate()</text>
  <rect x="597" y="420" width="140" height="24" rx="4" fill="#0f172a" stroke="#334155" stroke-width="0.5"/>
  <text x="667" y="437" text-anchor="middle" fill="#e2e8f0" font-size="10">context overflow safe</text>
</svg>
